<svg id="SvgjsSvg1018" width="288" height="288" xmlns="http://www.w3.org/2000/svg" version="1.1" xmlns:xlink="http://www.w3.org/1999/xlink" xmlns:svgjs="http://svgjs.com/svgjs"><defs id="SvgjsDefs1019"></defs><g id="SvgjsG1020"><svg xmlns="http://www.w3.org/2000/svg" width="288" height="288" version="1.0" viewBox="0 0 61.149 56.855"><path fill-rule="evenodd" stroke="#8d8da0" stroke-linecap="round" stroke-linejoin="bevel" stroke-miterlimit="4.4" stroke-width="2.904" d="m 2.7443974,13.14595 c -0.4586,0 -0.8278,0.37 -0.8278,0.828 v 7.506 c 0,0.458 0.3692,0.828 0.8278,0.828 H 51.436398 c 0.459,0 0.828,-0.37 0.828,-0.828 v -7.506 c 0,-0.458 -0.369,-0.828 -0.828,-0.828 z" transform="translate(5.146 -1.586) scale(.92971)" fill="#d9d9d9" class="color000 svgShape colorStroke000 svgStroke"></path><path fill="#d9d9d9" fill-rule="evenodd" stroke="#8d8da0" stroke-linecap="round" stroke-linejoin="bevel" stroke-width="3.387" d="m -4.777938,-39.630591 h 59 L 25,-47.590211 Z" transform="translate(5.697 49.226)" class="color000004 svgShape colorStroke000 svgStroke"></path><g transform="translate(5.697 49.226)" fill="#d9d9d9" class="color000 svgShape"><path fill="none" stroke="#8d8da0" stroke-linecap="round" stroke-linejoin="bevel" stroke-width="5.226" d="M3-2.5902114V-25.590211M13-2.5902118V-25.590211M47-2.5902114V-25.590211M37-2.5902118V-25.590211M25-2.5902114V-25.590211" class="colorStroke000 svgStroke"></path></g><ellipse cx="24.931" cy="-38.627" fill="#d9d9d9" stroke="#8d8da0" stroke-linecap="round" stroke-linejoin="bevel" stroke-width="2.202" rx="8.736" ry="8.884" transform="translate(5.697 49.226)" class="colorfff svgShape colorStroke000 svgStroke"></ellipse><g transform="translate(5.697 49.226)" style="line-height:125%;-inkscape-font-specification:'Berlin Sans FB'" fill="#d9d9d9" class="color000 svgShape"><path style="-inkscape-font-specification:'Cooper Black, '" d="m 24.180838,-43.889233 v -0.367187 q 0,-0.3125 0.101562,-0.414063 0.101563,-0.101562 0.414063,-0.101562 h 0.65625 q 0.304687,0 0.40625,0.101562 0.101562,0.101563 0.101562,0.414063 v 0.375 q 0,0.25 0.07031,0.304687 0.07031,0.04688 0.515625,0.125 0.109375,0.02344 0.4375,0.125 0.140625,0.03906 0.21875,0.03906 0.07813,0 0.210937,-0.04688 0.328125,-0.117188 0.46875,-0.117188 0.414063,0 0.929688,0.695313 0.546875,0.734375 0.546875,1.429687 0,0.40625 -0.226563,0.65625 -0.226562,0.25 -0.585937,0.25 -0.265625,0 -0.4375,-0.109375 -0.164063,-0.117187 -0.882813,-0.773437 -0.703125,-0.648438 -1.523437,-0.648438 -0.351563,0 -0.578125,0.195313 -0.21875,0.1875 -0.21875,0.492187 0,0.421875 0.46875,0.671875 0.179687,0.101563 1.4375,0.476563 1.257812,0.382812 1.90625,0.960937 0.828125,0.75 0.828125,1.953125 0,1.226563 -0.882813,2.054688 -0.492187,0.46875 -1.148437,0.78125 -0.65625,0.3125 -1.234375,0.359375 -0.210938,0.01563 -0.265625,0.07813 -0.05469,0.0625 -0.05469,0.289062 v 0.359375 q 0,0.3125 -0.101562,0.414063 -0.101563,0.101562 -0.40625,0.101562 h -0.65625 q -0.3125,0 -0.414063,-0.101562 -0.101562,-0.101563 -0.101562,-0.414063 v -0.359375 q 0,-0.210937 -0.04688,-0.28125 -0.03906,-0.0625 -0.179688,-0.07813 -0.679687,-0.08594 -1.351562,-0.296875 -0.664063,-0.203125 -0.898438,-0.398437 -0.296875,-0.242188 -0.546875,-0.96875 -0.242187,-0.726563 -0.242187,-1.351563 0,-0.328125 0.148437,-0.515625 0.15625,-0.195312 0.40625,-0.195312 0.296875,0 0.609375,0.359375 0.08594,0.101562 0.53125,0.789062 0.296875,0.460938 0.828125,0.726563 0.539063,0.257812 1.171875,0.257812 0.507813,0 0.828125,-0.1875 0.328125,-0.1875 0.328125,-0.484375 0,-0.359375 -0.445312,-0.609375 -0.148438,-0.07813 -1.335938,-0.507812 -2.835937,-1.007813 -2.835937,-3.140625 0,-1.195313 0.976562,-2.09375 0.757813,-0.703125 1.710938,-0.890625 0.25,-0.04688 0.296875,-0.101563 0.04688,-0.05469 0.04688,-0.28125 z" aria-label="$" font-family="Cooper Black" font-size="16" font-weight="400" letter-spacing="0" word-spacing="0" fill="#d9d9d9" class="color000 svgShape"></path></g><path fill-rule="evenodd" stroke="#8d8da0" stroke-linecap="round" stroke-width="2.619" d="M 5.6917938,50.636022 2.4387534,55.54582 H 58.69721 L 55.413043,50.636022 H 5.6923032 Z" fill="#d9d9d9" class="color000 svgShape colorStroke000 svgStroke"></path></svg></g></svg>